<svg xmlns="http://www.w3.org/2000/svg" viewBox="0 0 32 32" width="32" height="32">
  <!-- White background -->
  <rect width="32" height="32" fill="white"/>
  
  <!-- Clean infinity symbol -->
  <path d="M5 16c0-3 2.5-5.5 5.5-5.5 2 0 3.8 1.2 5.5 3.5 1.7-2.3 3.5-3.5 5.5-3.5 3 0 5.5 2.5 5.5 5.5s-2.5 5.5-5.5 5.5c-2 0-3.8-1.2-5.5-3.5-1.7 2.3-3.5 3.5-5.5 3.5C7.5 21.5 5 19 5 16zm5.5-3.5c-2 0-3.5 1.5-3.5 3.5s1.5 3.5 3.5 3.5c1.2 0 2.5-0.8 4-2.5-1.5-1.7-2.8-2.5-4-2.5zm10.5 0c-1.2 0-2.5 0.8-4 2.5 1.5 1.7 2.8 2.5 4 2.5 2 0 3.5-1.5 3.5-3.5s-1.5-3.5-3.5-3.5z" fill="black" stroke="black" stroke-width="0.5"/>
</svg>